<?xml version="1.0" encoding="UTF-8" standalone="no"?>
<!-- Created with Inkscape (http://www.inkscape.org/) -->
<svg xmlns:inkscape="http://www.inkscape.org/namespaces/inkscape" xmlns:rdf="http://www.w3.org/1999/02/22-rdf-syntax-ns#" xmlns="http://www.w3.org/2000/svg" xmlns:sodipodi="http://sodipodi.sourceforge.net/DTD/sodipodi-0.dtd" xmlns:cc="http://creativecommons.org/ns#" xmlns:xlink="http://www.w3.org/1999/xlink" xmlns:dc="http://purl.org/dc/elements/1.1/" xmlns:svg="http://www.w3.org/2000/svg" xmlns:ns1="http://sozi.baierouge.fr" id="svg3232" sodipodi:docname="hawk88_hompage.svg" viewBox="0 0 519.99 495.08" sodipodi:version="0.32" version="1.0" inkscape:output_extension="org.inkscape.output.svg.inkscape" inkscape:version="0.46dev+devel" sodipodi:docbase="/home/mart/Documents/artwork">
  <defs id="defs3234">
    <radialGradient id="radialGradient7457" gradientUnits="userSpaceOnUse" cy="295.21" cx="419.01" gradientTransform="matrix(1.9286 -1.4947e-7 9.411e-8 1.2143 -389.08 -63.26)" r="19.191" inkscape:collect="always">
      <stop id="stop7341" style="stop-color:#cac2c2" offset="0"/>
      <stop id="stop7343" style="stop-color:#a6a6a6" offset="1"/>
    </radialGradient>
    <linearGradient id="linearGradient7455" y2="41.516" gradientUnits="userSpaceOnUse" x2="179.85" gradientTransform="matrix(.17081 0 0 1.1973 268.72 159.71)" y1="101.63" x1="179.85" inkscape:collect="always">
      <stop id="stop5107" style="stop-color:#cbcbcb" offset="0"/>
      <stop id="stop5113" style="stop-color:#dddddd" offset=".81"/>
      <stop id="stop5109" style="stop-color:#c5c5c5" offset="1"/>
    </linearGradient>
    <filter id="filter3387" inkscape:collect="always">
      <feGaussianBlur id="feGaussianBlur3389" stdDeviation="1.877244" inkscape:collect="always"/>
    </filter>
  </defs>
  <sodipodi:namedview id="base" bordercolor="#666666" inkscape:pageshadow="2" guidetolerance="10" pagecolor="#ffffff" gridtolerance="10000" inkscape:window-height="643" inkscape:zoom="0.35" objecttolerance="10" showgrid="false" borderopacity="1.0" inkscape:current-layer="layer1" inkscape:cx="375" inkscape:cy="520" inkscape:window-y="21" inkscape:window-x="408" inkscape:window-width="872" inkscape:pageopacity="0.0" inkscape:document-units="px"/>
  <g id="layer1" inkscape:label="Layer 1" inkscape:groupmode="layer" transform="translate(-94.892 -75.182)">
    <g id="g7436" transform="matrix(6.4246 0 0 6.4246 -1623.2 -1244.5)">
      <rect id="rect6499" style="fill:#ffffff" inkscape:export-ydpi="650" inkscape:export-filename="/home/mart/Desktop/lockcal.png" ry="0" height="77.06" width="80.938" inkscape:export-xdpi="650" y="205.42" x="267.42"/>
      <rect id="rect6501" style="filter:url(#filter3387);fill:#666666" inkscape:export-ydpi="90" inkscape:export-filename="/var/www/callorganizer/templates/BellenTell/img/tableheader2.png" height="63.118" width="73.545" inkscape:export-xdpi="90" y="214.26" x="271.58"/>
      <rect id="rect6503" style="fill:url(#linearGradient7455)" inkscape:export-ydpi="90" inkscape:export-filename="/var/www/callorganizer/templates/BellenTell/img/tableheader2.png" height="67.965" width="73.545" inkscape:export-xdpi="90" y="209.41" x="271.58"/>
      <rect id="rect6609" style="fill:#e6e6e6" ry=".65431" height="49.977" width="66.191" y="221.89" x="275.25"/>
      <rect id="rect7061" style="fill:#e6e6e6" ry=".091701" height="7.0043" width="66.191" y="212.84" x="275.25"/>
      <path id="path7063" style="opacity:.79121;fill:#008000" d="m280.4 214.57l-1.54 0.94-1.56 0.94 1.56 0.93 1.54 0.94v-1.28h1.24c0.02 0 0.04-0.02 0.04-0.04v-1.11c0-0.02-0.02-0.04-0.04-0.04h-1.24v-1.28z"/>
      <path id="path7074" style="opacity:.79121;fill:#008000" d="m284.57 218.32l1.55-0.94 1.56-0.93-1.56-0.94-1.55-0.94v1.28h-1.23c-0.02 0-0.04 0.02-0.04 0.04v1.11c0 0.02 0.02 0.04 0.04 0.04h1.23v1.28z"/>
      <g id="g7287" transform="matrix(.65373 0 0 .65373 157.03 21.842)">
        <path id="path7278" sodipodi:nodetypes="cccczzzcc" style="opacity:.79121;fill:#008000" d="m207.92 298.35l0.06 2.54 2.7-0.75-0.92-0.86s1.78-1.7 0.31-3.78c-1.52-2.13-3.62-1.5-3.55-0.79 0.06 0.63 0.92-0.01 2.07 1.35 1.15 1.38 0.34 2.66 0.34 2.66l-1.01-0.37z"/>
        <path id="path7285" sodipodi:nodetypes="cccczzzcc" style="opacity:.79121;fill:#008000" d="m205.84 296.99l-0.05-2.55-2.71 0.75 0.92 0.86s-1.78 1.71-0.3 3.79c1.51 2.13 3.61 1.49 3.54 0.78-0.05-0.63-0.92 0.02-2.06-1.35-1.16-1.37-0.34-2.65-0.34-2.65l1 0.37z"/>
      </g>
      <rect id="rect7291" style="stroke:#b6b6b6;stroke-width:0.276;fill:#ffffff" ry=".037860" height="2.8918" width="36.695" y="214.9" x="296.86"/>
      <path id="path7363" sodipodi:rx="19.191433" sodipodi:ry="19.191433" style="opacity:.47253;fill:url(#radialGradient7457)" sodipodi:type="arc" d="m438.2 295.21a19.191 19.191 0 1 1 -38.38 0 19.191 19.191 0 1 1 38.38 0z" transform="matrix(1.1786 0 0 1.1786 -172.01 -94.524)" sodipodi:cy="295.21448" sodipodi:cx="419.01294"/>
      <path id="path7313" style="opacity:.47253;fill:#666666" d="m321.64 230.79c-3.08 0-6 0.61-8.68 1.73 0.34 0.33 0.84 0.78 0.65 1.54-0.2 0.8-0.08 1.58 0.59 2.08 0.62 0.46 0.9 0.85 0.9 1.79 0 0.87-0.1 1.45-0.3 2.23-0.15 0.61-0.32 1.5-0.89 1.64-0.73 0.18-1.08 0.22-1.49 1.04-0.36 0.72-1.15 1.6-1.64 2.08-0.4 0.41-0.54 0.72-1.19 1.04-0.59 0.3-1.77-0.19-1.93 0.45-0.17 0.68 0.15 1.27 0.15 2.09 0 1.33-1.74-0.24-2.68 0-0.7 0.17-1.51-0.04-2.23 0.14-0.55 0.14-1.4 0.42-1.64 0.89-0.29 0.58-1.32 1.51-0.74 1.8 0.45 0.22 1.16 0.1 1.93 0.29 0.28 0.07 1.72 1.22 1.79 1.19 0.93-0.46 1.19-0.29 1.78 0.3 0.51 0.5 0.97 0.98 1.64 1.48 0.97 0.73 1.04 1.29 1.04 2.38 0 0.89 0.18 1.53 0.74 2.09 0.82 0.82 1.13 1.21 1.79 2.09 0.37 0.49 1.46 1.74 1.34 2.38-0.17 0.8-0.44 1.92-0.89 2.52-0.26 0.35-1.15 1.12-0.9 1.64 0.48 0.95 0.29 1.14 0.45 1.78 0.19 0.77-0.62 2.58-0.89 3.14-0.21 0-0.42 0-0.62 0.01 3.46 2.15 7.54 3.41 11.92 3.41 6.48 0 12.32-2.74 16.45-7.11-0.65-0.2-1.51-0.45-1.56-0.64-0.18-0.71 0.3-1.28 0.3-2.08 0-0.81 0.21-1.39 0-2.23-0.25-0.97-0.49-0.81-1.19-1.34-1.33-1-0.21-0.39-0.9 0.3-0.45 0.45-1.35 1.2-1.93 1.64-0.6 0.44-1.47 0.88-2.09 1.34-0.47 0.35-1.35 0.78-1.49 1.33-0.17 0.71 0.05 1.28 0.45 2.09 0.49 0.98 0.46 1.18 0 2.08-0.35 0.71-0.89 0.75-1.48 1.2-0.7 0.52-1.63 0.43-2.68 0.43-0.43 0-1.79 0.24-1.79-0.59 0-0.82-0.55-1.45-0.74-2.23-0.14-0.56 0-1.37 0-2.08s0.29-1.64 0.59-2.23c0.44-0.89 0.31-1.49-0.59-1.94-0.81-0.41-0.67-1.06-0.45-1.94 0.19-0.76 0.37-1.49 0.74-2.23 0.39-0.77 0.52-1.34 0.74-2.23 0.21-0.82 0.26-1.74-0.14-2.53-0.33-0.66-0.86-1.48-1.05-2.23-0.12-0.49-0.6-1.92-0.14-2.38 0.63-0.63 1.95-0.47 2.52-0.45 0.72 0.54 1.91 0.43 2.54 0.75 0.53 0.26 1.53-0.13 2.09 0.15 0.66 0.33 1.38 0.76 1.93 1.04 0.94 0.47 1.07 0.4 2.07 0.15 0.76-0.19 1.63 0.27 1.95 0.59 0.81 0.82 0.91 1.02 1.18 2.09 0.19 0.78-0.2 1.61-0.44 2.08-0.42 0.84 0.45 1.19 1.04 1.78 0.7 0.7 0.77 0.73 1.04 1.79 0.18 0.72 1.26 0.09 1.49 1.04 0.28 1.12 0.7 0.5 1.19 0 0.58-0.57 0.7-1.3 1.18-1.79 0.41-0.4 0.63-2.62 0.76-3.12 0.2-0.81-0.04-1.92-0.15-2.39-0.21-0.81-0.83-1.2-1.04-2.07-0.17-0.65 0-1.57 0-2.24 0-0.56-0.85-1.68-1.05-2.08-0.14-0.27-1.14-0.69-1.33-0.89-0.59-0.59-1.19-0.58-1.19-1.64 0-0.94-0.51-1.31-1.2-1.49-1.01-0.25-1.33 0.72-1.63 1.34-0.47 0.93-0.69 1.34-1.8 1.34-0.67 0-1.58-0.13-2.22-0.29-0.94-0.24-1.31-0.47-2.09-1.05-0.59-0.45-1.55-0.72-2.23-0.89-0.57-0.14-0.54 1.41-0.45 1.78 0.22 0.87 1.05 0.58 1.05 1.64 0 0.51-1.7 0.3-2.08 0.3h-2.24c-1.1 0-1.24 0.04-1.63-0.75-0.28-0.56-0.45-1.42-0.45-2.08v-2.23c0-0.78 0.41-1 1.19-1.19 0.95-0.24 1.35-0.01 1.93-0.59 0.63-0.63 0.05-1.06 1.2-1.35 1.16-0.29 0.98-0.34 1.48-1.34 0.31-0.62 0.42-1.04 0.6-1.78 0.18-0.73 0.39-0.97 0.59-1.78 0.18-0.7 0.15-1.46 0.15-2.24 0-0.38-0.36-0.68-0.76-0.91-1.98-0.56-4.07-0.87-6.24-0.87zm21.64 29.24c-0.14 0.25-0.28 0.5-0.36 0.81-0.18 0.72-0.57 1.27-0.74 1.93-0.03 0.14-0.09 0.31-0.17 0.48 0.5-1.03 0.93-2.11 1.27-3.22zm-1.27 3.22c-0.25 0.53-0.65 1.17-0.87 1.61 0.31-0.52 0.6-1.06 0.87-1.61zm-1.15 2.08c-0.3 0.42-0.63 0.76-0.91 1.32-0.01 0.03-0.02 0.05-0.03 0.07 0.33-0.45 0.64-0.92 0.94-1.39z"/>
      <rect id="rect7414" style="opacity:.47253;fill:#cccccc" height="35.527" width="13.137" y="234.44" x="276.56"/>
      <rect id="rect7416" style="opacity:.47253;fill:#cccccc" height="35.527" width="48.093" y="234.44" x="290.61"/>
      <rect id="rect7418" style="opacity:.47253;fill:#cccccc" height="9.9384" width="62.258" y="223.48" x="276.56"/>
      <path id="path7434" sodipodi:nodetypes="cccccccc" style="opacity:.79121;fill:#008000" d="m335.43 218.26l1.52-0.92 1.54-0.92-1.54-0.92-1.52-0.93v1.26 1.18 1.25z"/>
    </g>
  </g>
  <metadata>
    <rdf:RDF>
      <cc:Work>
        <dc:format>image/svg+xml</dc:format>
        <dc:type rdf:resource="http://purl.org/dc/dcmitype/StillImage"/>
        <cc:license rdf:resource="http://creativecommons.org/licenses/publicdomain/"/>
        <dc:publisher>
          <cc:Agent rdf:about="http://openclipart.org/">
            <dc:title>Openclipart</dc:title>
          </cc:Agent>
        </dc:publisher>
        <dc:title>homepage</dc:title>
        <dc:date>2007-11-19T11:54:47</dc:date>
        <dc:description/>
        <dc:source>https://openclipart.org/detail/8728/homepage-by-hawk88</dc:source>
        <dc:creator>
          <cc:Agent>
            <dc:title>hawk88</dc:title>
          </cc:Agent>
        </dc:creator>
        <dc:subject>
          <rdf:Bag>
            <rdf:li>browser</rdf:li>
            <rdf:li>homepage</rdf:li>
            <rdf:li>web</rdf:li>
          </rdf:Bag>
        </dc:subject>
      </cc:Work>
      <cc:License rdf:about="http://creativecommons.org/licenses/publicdomain/">
        <cc:permits rdf:resource="http://creativecommons.org/ns#Reproduction"/>
        <cc:permits rdf:resource="http://creativecommons.org/ns#Distribution"/>
        <cc:permits rdf:resource="http://creativecommons.org/ns#DerivativeWorks"/>
      </cc:License>
    </rdf:RDF>
  </metadata>
</svg>